<svg xmlns="http://www.w3.org/2000/svg" xmlns:xlink="http://www.w3.org/1999/xlink" viewBox="0,0,256,256" width="64px" height="64px" fill-rule="nonzero"><g fill="#f6f4eb" fill-rule="nonzero" stroke="none" stroke-width="1" stroke-linecap="butt" stroke-linejoin="miter" stroke-miterlimit="10" stroke-dasharray="" stroke-dashoffset="0" font-family="none" font-weight="none" font-size="none" text-anchor="none" style="mix-blend-mode: normal"><g transform="scale(4,4)"><path d="M7,8c-2.75781,0 -5,2.24219 -5,5v34c0,2.75781 2.24219,5 5,5h50c2.75781,0 5,-2.24219 5,-5v-34c0,-2.75781 -2.24219,-5 -5,-5zM8.84766,10h46.30469l-22.56641,16.34375c-0.35156,0.25391 -0.82422,0.25391 -1.17578,0zM5.79688,10.25781l24.44141,17.70313c0.52734,0.38281 1.14453,0.57031 1.76172,0.57031c0.61719,0 1.23438,-0.1875 1.76172,-0.57031l24.44141,-17.70312c1.05469,0.46484 1.79688,1.51563 1.79688,2.74219v34c0,1.65234 -1.34766,3 -3,3h-3v-28.20703c0,-0.375 -0.21094,-0.71875 -0.54687,-0.89062c-0.33203,-0.17187 -0.73437,-0.14062 -1.03906,0.08203l-19.82812,14.35938c-0.35156,0.25391 -0.82422,0.25391 -1.17578,0l-19.82031,-14.35937c-0.30469,-0.22266 -0.70703,-0.25391 -1.04297,-0.08203c-0.33594,0.17188 -0.54687,0.51563 -0.54687,0.89453v28.20313h-3c-1.65234,0 -3,-1.34766 -3,-3v-34c0,-1.22656 0.74219,-2.27734 1.79688,-2.74219zM52,23.75v20.25c-0.55078,0 -1,0.44531 -1,1v2c0,0.55469 0.44922,1 1,1v2h-40v-2c0.55078,0 1,-0.44531 1,-1v-2c0,-0.55469 -0.44922,-1 -1,-1v-20.24609l18.23828,13.20703c1.05469,0.76563 2.46875,0.76563 3.52344,0zM17,44c-0.55078,0 -1,0.44531 -1,1v2c0,0.55469 0.44922,1 1,1c0.55078,0 1,-0.44531 1,-1v-2c0,-0.55469 -0.44922,-1 -1,-1zM22,44c-0.55078,0 -1,0.44531 -1,1v2c0,0.55469 0.44922,1 1,1c0.55078,0 1,-0.44531 1,-1v-2c0,-0.55469 -0.44922,-1 -1,-1zM27,44c-0.55078,0 -1,0.44531 -1,1v2c0,0.55469 0.44922,1 1,1c0.55078,0 1,-0.44531 1,-1v-2c0,-0.55469 -0.44922,-1 -1,-1zM32,44c-0.55078,0 -1,0.44531 -1,1v2c0,0.55469 0.44922,1 1,1c0.55078,0 1,-0.44531 1,-1v-2c0,-0.55469 -0.44922,-1 -1,-1zM37,44c-0.55078,0 -1,0.44531 -1,1v2c0,0.55469 0.44922,1 1,1c0.55078,0 1,-0.44531 1,-1v-2c0,-0.55469 -0.44922,-1 -1,-1zM42,44c-0.55078,0 -1,0.44531 -1,1v2c0,0.55469 0.44922,1 1,1c0.55078,0 1,-0.44531 1,-1v-2c0,-0.55469 -0.44922,-1 -1,-1zM47,44c-0.55078,0 -1,0.44531 -1,1v2c0,0.55469 0.44922,1 1,1c0.55078,0 1,-0.44531 1,-1v-2c0,-0.55469 -0.44922,-1 -1,-1z"></path></g></g></svg>