<svg xmlns="http://www.w3.org/2000/svg" xmlns:xlink="http://www.w3.org/1999/xlink" viewBox="0,0,256,256" width="64px" height="64px" fill-rule="nonzero"><g fill="#f6f4eb" fill-rule="nonzero" stroke="none" stroke-width="1" stroke-linecap="butt" stroke-linejoin="miter" stroke-miterlimit="10" stroke-dasharray="" stroke-dashoffset="0" font-family="none" font-weight="none" font-size="none" text-anchor="none" style="mix-blend-mode: normal"><g transform="scale(4,4)"><path d="M13,6c-3.866,0 -7,3.134 -7,7v38c0,3.866 3.134,7 7,7h38c3.866,0 7,-3.134 7,-7v-38c0,-3.866 -3.134,-7 -7,-7zM13,8h38c2.761,0 5,2.239 5,5v38c0,2.761 -2.239,5 -5,5h-38c-2.761,0 -5,-2.239 -5,-5v-38c0,-2.761 2.239,-5 5,-5zM12,12.00781c-0.55152,0.00862 -0.99193,0.46214 -0.98437,1.01367v2c-0.0051,0.36064 0.18438,0.69608 0.49587,0.87789c0.3115,0.18181 0.69676,0.18181 1.00825,0c0.3115,-0.18181 0.50097,-0.51725 0.49587,-0.87789v-2c0.0037,-0.2703 -0.10218,-0.53059 -0.29351,-0.72155c-0.19133,-0.19097 -0.45182,-0.29634 -0.72212,-0.29212zM16.99414,12.00781c-0.55152,0.00862 -0.99193,0.46214 -0.98437,1.01367v2c-0.0051,0.36064 0.18438,0.69608 0.49587,0.87789c0.3115,0.18181 0.69676,0.18181 1.00825,0c0.3115,-0.18181 0.50097,-0.51725 0.49587,-0.87789v-2c0.0037,-0.2703 -0.10218,-0.53059 -0.29351,-0.72155c-0.19133,-0.19097 -0.45182,-0.29634 -0.72212,-0.29212zM21.98828,12.00781c-0.55152,0.00862 -0.99193,0.46214 -0.98437,1.01367v2c-0.0051,0.36064 0.18438,0.69608 0.49587,0.87789c0.3115,0.18181 0.69676,0.18181 1.00825,0c0.3115,-0.18181 0.50097,-0.51725 0.49587,-0.87789v-2c0.0037,-0.2703 -0.10218,-0.53059 -0.29351,-0.72155c-0.19133,-0.19097 -0.45182,-0.29634 -0.72212,-0.29212zM26.98047,12.00781c-0.55152,0.00862 -0.99193,0.46214 -0.98437,1.01367v2c-0.0051,0.36064 0.18438,0.69608 0.49587,0.87789c0.3115,0.18181 0.69676,0.18181 1.00825,0c0.3115,-0.18181 0.50097,-0.51725 0.49587,-0.87789v-2c0.0037,-0.2703 -0.10218,-0.53059 -0.29351,-0.72155c-0.19133,-0.19097 -0.45182,-0.29634 -0.72212,-0.29212zM31.97461,12.00781c-0.55228,0.00755 -0.99388,0.46139 -0.98633,1.01367v2c-0.0051,0.36064 0.18438,0.69608 0.49587,0.87789c0.3115,0.18181 0.69676,0.18181 1.00825,0c0.3115,-0.18181 0.50097,-0.51725 0.49587,-0.87789v-2c0.00369,-0.26996 -0.10192,-0.52994 -0.29283,-0.72084c-0.19091,-0.19091 -0.45089,-0.29652 -0.72084,-0.29283zM36.96875,12.00781c-0.55228,0.00755 -0.99388,0.46139 -0.98633,1.01367v2c-0.0051,0.36064 0.18438,0.69608 0.49587,0.87789c0.3115,0.18181 0.69676,0.18181 1.00825,0c0.3115,-0.18181 0.50097,-0.51725 0.49587,-0.87789v-2c0.00369,-0.26996 -0.10192,-0.52994 -0.29283,-0.72084c-0.19091,-0.19091 -0.45089,-0.29652 -0.72084,-0.29283zM41.96094,12.00781c-0.55152,0.00862 -0.99193,0.46214 -0.98438,1.01367v2c-0.0051,0.36064 0.18438,0.69608 0.49587,0.87789c0.3115,0.18181 0.69676,0.18181 1.00825,0c0.3115,-0.18181 0.50097,-0.51725 0.49587,-0.87789v-2c0.0037,-0.2703 -0.10218,-0.53059 -0.29351,-0.72155c-0.19133,-0.19097 -0.45182,-0.29634 -0.72211,-0.29212zM46.95313,12.00781c-0.55152,0.00862 -0.99193,0.46214 -0.98437,1.01367v2c-0.0051,0.36064 0.18438,0.69608 0.49587,0.87789c0.3115,0.18181 0.69676,0.18181 1.00825,0c0.3115,-0.18181 0.50097,-0.51725 0.49587,-0.87789v-2c0.0037,-0.2703 -0.10218,-0.53059 -0.29351,-0.72155c-0.19133,-0.19097 -0.45182,-0.29634 -0.72212,-0.29212zM51.94727,12.00781c-0.55152,0.00862 -0.99193,0.46214 -0.98437,1.01367v2c-0.0051,0.36064 0.18438,0.69608 0.49587,0.87789c0.3115,0.18181 0.69676,0.18181 1.00825,0c0.3115,-0.18181 0.50097,-0.51725 0.49587,-0.87789v-2c0.0037,-0.2703 -0.10218,-0.53059 -0.29351,-0.72155c-0.19133,-0.19097 -0.45182,-0.29634 -0.72212,-0.29212zM19.5,18c-1.41667,0 -2.60644,0.56726 -3.37305,1.42969c-0.76661,0.86243 -1.12695,1.97309 -1.12695,3.07031c0,1.09722 0.36035,2.20788 1.12695,3.07031c0.76661,0.86243 1.95638,1.42969 3.37305,1.42969c1.41667,0 2.60644,-0.56726 3.37305,-1.42969c0.76661,-0.86243 1.12695,-1.97309 1.12695,-3.07031c0,-1.09722 -0.36035,-2.20788 -1.12695,-3.07031c-0.76661,-0.86243 -1.95638,-1.42969 -3.37305,-1.42969zM19.5,20c0.91667,0 1.47689,0.30774 1.87695,0.75781c0.40006,0.45007 0.62305,1.08941 0.62305,1.74219c0,0.65278 -0.22299,1.29212 -0.62305,1.74219c-0.40006,0.45007 -0.96029,0.75781 -1.87695,0.75781c-0.91667,0 -1.47689,-0.30774 -1.87695,-0.75781c-0.40006,-0.45007 -0.62305,-1.08941 -0.62305,-1.74219c0,-0.65278 0.22299,-1.29212 0.62305,-1.74219c0.40006,-0.45007 0.96029,-0.75781 1.87695,-0.75781zM41.23047,27c-2.65085,0 -4.83666,1.04735 -6.45703,2.06836c-0.19118,-0.88892 -0.88424,-1.61914 -1.82617,-1.61914h-4.9707c-1.08198,0 -1.97461,0.90096 -1.97461,1.98047v20.57227c0,1.07951 0.89263,1.97852 1.97461,1.97852h5.27344c1.08198,0 1.97656,-0.89901 1.97656,-1.97852v-10.36523c0,-1.36032 0.38616,-2.45768 0.92578,-3.17578c0.53962,-0.7181 1.18673,-1.05469 1.87109,-1.05469c0.6512,0 1.11406,0.30264 1.55469,1.05664c0.44063,0.754 0.73633,1.94611 0.73633,3.33984v10.2168c0,1.07951 0.89458,1.98047 1.97656,1.98047h5.27344c1.08198,0 1.97461,-0.90096 1.97461,-1.98047v-11.95312c0,-2.71557 -0.535,-5.39995 -1.85547,-7.5c-1.32047,-2.10004 -3.53675,-3.56641 -6.45312,-3.56641zM16,28c-0.55226,0.00006 -0.99994,0.44774 -1,1v22c0.00006,0.55226 0.44774,0.99994 1,1h7c0.55226,-0.00006 0.99994,-0.44774 1,-1v-22c-0.00006,-0.55226 -0.44774,-0.99994 -1,-1zM41.23047,29c2.28763,0 3.72623,0.98715 4.75977,2.63086c1.03353,1.64371 1.54883,3.99212 1.54883,6.43555v11.93359h-5.22461v-10.19727c0,-1.66227 -0.3199,-3.16911 -1.00977,-4.34961c-0.68987,-1.1805 -1.87245,-2.04687 -3.28125,-2.04687c-1.37563,0 -2.62632,0.72986 -3.4707,1.85352c-0.84438,1.12365 -1.32617,2.64227 -1.32617,4.37695v10.34375h-5.22461v-20.53125h4.92188v1.2832c0.00055,0.38925 0.22691,0.74281 0.58018,0.90625c0.35327,0.16344 0.76928,0.10705 1.0663,-0.14453c0.944,-0.80346 3.95203,-2.49414 6.66016,-2.49414zM17,30h5v20h-5z"></path></g></g></svg>