<?xml version="1.0" encoding="utf-8"?>
<!-- Generator: Adobe Illustrator 26.0.3, SVG Export Plug-In . SVG Version: 6.00 Build 0)  -->
<svg version="1.1" id="Camada_1" xmlns="http://www.w3.org/2000/svg" xmlns:xlink="http://www.w3.org/1999/xlink" x="0px" y="0px"
	 viewBox="0 0 500 261" style="enable-background:new 0 0 500 261;" xml:space="preserve">
<style type="text/css">
	.st0{fill:#FFFFFF;}
	.st1{clip-path:url(#SVGID_00000021824052719393022550000001441074303949902235_);}
	.st2{fill:#F4F4F4;}
	.st3{fill:#004AAD;}
</style>
<g>
	<g transform="translate(176.410085, 273.355588)">
		<g>
			<path class="st0" d="M150.2-17.5c-17.4,0-31.9-3.7-43.5-11.1C95.1-36,86.5-46.5,80.9-59.9c-5.7-13.4-8.5-29.1-8.5-47
				c0-17.9,2.9-33.5,8.6-46.8c5.7-13.3,14.4-23.6,25.9-30.9c11.6-7.3,26.1-11,43.5-11c16.5,0,30.5,3.7,42.1,11
				c11.6,7.3,20.4,17.7,26.4,31c6.1,13.3,9.1,29,9.1,46.9c0,17.9-3,33.6-9.1,46.9C212.9-46.4,204-36,192.5-28.6
				C180.9-21.2,166.8-17.5,150.2-17.5z M150.2-19.9c16.5,0,28.4-6.9,35.9-20.6c7.4-13.7,11.2-35.8,11.2-66.2
				c0-30.4-3.7-52.4-11.2-66.1c-7.4-13.7-19.3-20.5-35.6-20.5c-16.5,0-28.5,6.8-36.1,20.5c-7.6,13.7-11.4,35.7-11.4,66.1
				c0,30.4,3.8,52.4,11.3,66.2C121.7-26.7,133.7-19.9,150.2-19.9z M140.2-206.8v-2.4c3.4-5.2,7-11.1,10.8-17.9
				c3.8-6.8,7-12.9,9.6-18.4h24.5v2.4c-2.4,2.9-6.2,6.5-11.2,10.9c-5,4.4-10.3,8.9-16,13.6c-5.7,4.7-10.7,8.6-15.3,11.9H140.2z"/>
		</g>
	</g>
</g>
<g>
	<g transform="translate(74.793991, 216.929235)">
		<g>
			<path class="st0" d="M100.1-38.7l-55.5-158c-1.8-4.8-4-8.2-6.5-9.9c-2.6-1.8-6-2.7-10.2-2.7h-2.9v-2.4h70.3v2.4H87
				c-4.4,0-7.7,0.6-10.1,1.9c-2.3,1.3-3.5,3.6-3.5,7c0,2.9,0.8,6.6,2.4,11.2l29.6,86c5.7,16.2,10.1,30.6,13.3,43.4
				c1.8-6,3.8-12.6,6.1-19.9c2.3-7.3,4.4-14.1,6.5-20.6l27.9-87.3c1.8-5,2.7-9,2.7-11.9c0-3.7-1.3-6.3-3.8-7.8
				c-2.5-1.5-6.5-2.2-12-2.2h-14.8v-2.4H190v2.4h-8.2c-4.7,0-8.4,1.3-11.2,4c-2.7,2.7-5.2,7.5-7.2,14.4L114.1-38.7H100.1z"/>
		</g>
	</g>
</g>
<g>
	<defs>
		<rect id="SVGID_1_" x="44.7" y="156.5" width="423" height="49.4"/>
	</defs>
	<clipPath id="SVGID_00000003074920420641756530000015564714389598038456_">
		<use xlink:href="#SVGID_1_"  style="overflow:visible;"/>
	</clipPath>
	<g style="clip-path:url(#SVGID_00000003074920420641756530000015564714389598038456_);">
		<path class="st2" d="M44.7,156.5h422.7v49.2H44.7V156.5z"/>
	</g>
</g>
<g>
	<g transform="translate(97.195427, 231.333173)">
		<g>
			<path class="st3" d="M43.2-33.9L31.4-61.8h7.2l7,18.4l7-18.4h7.2L48.2-33.9H43.2z"/>
		</g>
	</g>
</g>
<g>
	<g transform="translate(117.096439, 231.333173)">
		<g>
			<path class="st3" d="M50.6-66.9l6.9-6l3.1,3.9l-8,4.7L50.6-66.9z M39.8-47.9c0-4,1.4-7.5,4.1-10.2c2.8-2.8,6.1-4.2,10-4.2
				c3.9,0,7.2,1.4,10,4.2c2.7,2.8,4.1,6.2,4.1,10.3c0,4.1-1.3,7.5-4,10.3c-2.7,2.8-6,4.2-10,4.2c-4.1,0-7.5-1.4-10.1-4.1
				C41.1-40.3,39.8-43.7,39.8-47.9z M46.7-47.9c0,1.5,0.2,2.8,0.7,4c0.5,1.2,1.2,2.2,2.4,3.1c1.1,0.8,2.5,1.2,4.2,1.2
				c2.4,0,4.2-0.8,5.4-2.4c1.2-1.6,1.8-3.6,1.8-5.9c0-2.3-0.6-4.2-1.9-5.9c-1.2-1.6-3-2.5-5.3-2.5c-2.3,0-4.1,0.8-5.3,2.5
				C47.3-52.1,46.7-50.1,46.7-47.9z"/>
		</g>
	</g>
</g>
<g>
	<g transform="translate(139.358155, 231.333173)">
		<g>
			<path class="st3" d="M54.8-61.8v22.4h9.6v5.6h-16v-27.9H54.8z"/>
		</g>
	</g>
</g>
<g>
	<g transform="translate(153.700085, 231.333173)">
		<g>
			<path class="st3" d="M74.7-61.8v18c0,3.4-0.9,6-2.8,7.8c-1.8,1.8-4.6,2.6-8.1,2.6c-3.6,0-6.3-0.9-8.1-2.6
				c-1.8-1.8-2.8-4.4-2.8-7.8v-18h6.4v16.1c0,2.3,0.4,3.8,1.1,4.7c0.7,0.9,1.9,1.3,3.5,1.3c1.6,0,2.8-0.4,3.5-1.3
				c0.7-0.9,1.1-2.5,1.1-4.7v-16.1H74.7z"/>
		</g>
	</g>
</g>
<g>
	<g transform="translate(172.585745, 231.333173)">
		<g>
			<path class="st3" d="M65.9-51.2v17.3h-6.4v-27.9h6.4L77-44.5h0.1v-17.3h6.4v27.9h-6.4L65.9-51.2L65.9-51.2z"/>
		</g>
	</g>
</g>
<g>
	<g transform="translate(193.552888, 231.333173)">
		<g>
			<path class="st3" d="M64.8-56.2v-5.6h19.6v5.6h-6.6v22.4h-6.4v-22.4H64.8z"/>
		</g>
	</g>
</g>
<g>
	<g transform="translate(208.681716, 231.333173)">
		<g>
			<path class="st3" d="M80.8-66.9l6.9-6l3.1,3.9l-8.1,4.7L80.8-66.9z M85.8-61.8l11.3,27.9h-6.9l-2.1-5.6H77.5l-2.1,5.6h-6.9
				l11.3-27.9H85.8z M86-45.1l-3.1-8.1h-0.1l-3.1,8.1H86z"/>
		</g>
	</g>
</g>
<g>
	<g transform="translate(228.582728, 231.333173)">
		<g>
			<path class="st3" d="M78.2-61.8h10c2.7,0,4.9,0.7,6.6,2.2c1.7,1.4,2.5,3.5,2.5,6.1c0,2.1-0.5,3.8-1.5,5.2c-1,1.4-2.4,2.4-4.2,2.9
				l9.6,11.5h-8.1l-8.5-11v11h-6.4V-61.8z M84.6-49.4h0.8c0.6,0,1.1,0,1.5,0c0.4,0,0.9-0.1,1.4-0.2c0.5-0.1,0.9-0.3,1.2-0.6
				c0.3-0.2,0.6-0.6,0.8-1.1c0.2-0.5,0.3-1.1,0.3-1.7c0-0.7-0.1-1.3-0.3-1.7c-0.2-0.5-0.5-0.8-0.8-1.1c-0.3-0.2-0.7-0.4-1.2-0.6
				c-0.5-0.1-1-0.2-1.4-0.2c-0.4,0-0.9,0-1.5,0h-0.8V-49.4z"/>
		</g>
	</g>
</g>
<g>
	<g transform="translate(246.757635, 231.333173)">
		<g>
			<path class="st3" d="M90.6-61.8v27.9h-6.4v-27.9H90.6z"/>
		</g>
	</g>
</g>
<g>
	<g transform="translate(254.575887, 231.333173)">
		<g>
			<path class="st3" d="M85.6-47.9c0-4,1.4-7.5,4.1-10.2c2.8-2.8,6.1-4.2,10-4.2c3.9,0,7.2,1.4,10,4.2c2.7,2.8,4.1,6.2,4.1,10.3
				c0,4.1-1.3,7.5-4,10.3c-2.7,2.8-6,4.2-10,4.2c-4.1,0-7.5-1.4-10.1-4.1C87-40.3,85.6-43.7,85.6-47.9z M92.5-47.9
				c0,1.5,0.2,2.8,0.7,4c0.5,1.2,1.2,2.2,2.4,3.1c1.1,0.8,2.5,1.2,4.2,1.2c2.4,0,4.2-0.8,5.4-2.4c1.2-1.6,1.8-3.6,1.8-5.9
				c0-2.3-0.6-4.2-1.9-5.9c-1.2-1.6-3-2.5-5.3-2.5c-2.3,0-4.1,0.8-5.3,2.5C93.1-52.1,92.5-50.1,92.5-47.9z"/>
		</g>
	</g>
</g>
<g>
	<g transform="translate(276.837602, 231.333173)">
		<g>
			<path class="st3" d="M104.6-62.3c1.5,0,3,0.2,4.4,0.7c1.4,0.4,2.5,0.9,3.2,1.3l1,0.7l-2.6,5.1c-0.2-0.1-0.5-0.3-0.9-0.5
				c-0.4-0.2-1-0.5-2-0.9c-1-0.4-1.9-0.5-2.8-0.5c-1.1,0-1.9,0.2-2.5,0.7c-0.6,0.4-0.9,1.1-0.9,1.8c0,0.4,0.1,0.8,0.4,1.1
				c0.3,0.3,0.7,0.7,1.4,1c0.7,0.4,1.2,0.7,1.7,0.9c0.5,0.2,1.3,0.6,2.3,1c1.8,0.8,3.3,1.8,4.6,3.1c1.3,1.3,1.9,2.8,1.9,4.5
				c0,1.6-0.3,3-0.9,4.2c-0.6,1.2-1.4,2.1-2.4,2.8c-1,0.7-2.1,1.2-3.3,1.5c-1.2,0.3-2.5,0.5-4,0.5c-1.2,0-2.4-0.1-3.6-0.4
				c-1.2-0.2-2.1-0.5-2.9-0.9c-0.8-0.4-1.5-0.7-2.1-1.1c-0.6-0.4-1.1-0.7-1.4-0.9l-0.5-0.4l3.2-5.4c0.3,0.2,0.7,0.5,1.1,0.9
				c0.5,0.3,1.3,0.8,2.5,1.4c1.2,0.6,2.3,0.9,3.2,0.9c2.7,0,4-0.9,4-2.8c0-0.4-0.1-0.7-0.3-1.1c-0.2-0.3-0.5-0.7-1-1
				c-0.5-0.3-0.9-0.6-1.3-0.8c-0.4-0.2-1-0.5-1.8-0.9c-0.8-0.4-1.5-0.7-1.9-0.9c-1.7-0.8-3-1.9-3.9-3.1c-0.9-1.3-1.4-2.6-1.4-4.1
				c0-2.5,0.9-4.5,2.8-6.1C100.1-61.5,102.2-62.3,104.6-62.3z"/>
		</g>
	</g>
</g>
</svg>
