<svg xmlns="http://www.w3.org/2000/svg" xmlns:xlink="http://www.w3.org/1999/xlink" viewBox="0,0,256,256" width="64px" height="64px" fill-rule="nonzero"><g fill="#f6f4eb" fill-rule="nonzero" stroke="none" stroke-width="1" stroke-linecap="butt" stroke-linejoin="miter" stroke-miterlimit="10" stroke-dasharray="" stroke-dashoffset="0" font-family="none" font-weight="none" font-size="none" text-anchor="none" style="mix-blend-mode: normal"><g transform="scale(4,4)"><path d="M32,3c-15.99,0 -29,13.009 -29,29c0,15.991 13.01,29 29,29c15.99,0 29,-13.009 29,-29c0,-15.991 -13.01,-29 -29,-29zM32,5c14.888,0 27,12.112 27,27c0,14.888 -12.112,27 -27,27c-14.888,0 -27,-12.112 -27,-27c0,-14.888 12.112,-27 27,-27zM32,9c-12.683,0 -23,10.318 -23,23c0,0.552 0.447,1 1,1c0.553,0 1,-0.448 1,-1c0,-11.58 9.421,-21 21,-21c11.579,0 21,9.42 21,21c0,11.58 -9.421,21 -21,21c-0.553,0 -1,0.448 -1,1c0,0.552 0.447,1 1,1c12.683,0 23,-10.318 23,-23c0,-12.682 -10.317,-23 -23,-23zM41.36719,20.02539c-0.38437,-0.0375 -0.80592,0.02586 -1.23242,0.19336c-0.736,0.291 -20.73939,8.72459 -21.52539,9.05859c-0.822,0.28 -1.73166,0.98573 -1.59766,2.05273c0.152,1.212 1.41817,1.694 1.57617,1.75l4.875,1.64258c0.409,1.341 1.53002,5.01299 1.79102,5.83398c0.13,0.413 0.4597,1.45155 1.2207,1.68555c0.582,0.211 1.15887,0.00998 1.54688,-0.29102l2.84766,-2.5957l4.73633,3.63086l0.20898,0.12305c0.431,0.188 0.81649,0.25586 1.14648,0.25586c0.352,0 0.64137,-0.07702 0.85937,-0.16602c0.909,-0.373 1.2735,-1.22627 1.3125,-1.32227l3.76758,-19.21875c0.276,-1.228 -0.13339,-1.8857 -0.52539,-2.2207c-0.276,-0.2355 -0.62344,-0.37461 -1.00781,-0.41211zM40.98242,22.03906c-0.007,0.057 -0.01811,0.12599 -0.03711,0.20898l-3.69336,18.92578c-0.037,0.053 -0.1055,0.14178 -0.1875,0.17578c-0.099,0.039 -0.24056,0.0068 -0.35156,-0.0332l-5.95508,-4.56836l-3.57227,3.26367l0.75391,-4.79687c0,0 9.2563,-8.628 9.6543,-9c0.398,-0.371 0.26563,-0.45117 0.26563,-0.45117c0.027,-0.451 -0.60156,-0.12891 -0.60156,-0.12891l-12.17773,7.54102l-0.00586,-0.02148l-5.82031,-1.95898c-0.009,-0.004 -0.0193,-0.00772 -0.0293,-0.01172c0.032,-0.014 0.06466,-0.02706 0.09766,-0.03906c7.195,-3.034 20.94792,-8.83041 21.54492,-9.06641c0.041,-0.017 0.08023,-0.02906 0.11523,-0.03906zM12.00391,37.03516c-0.12917,-0.01406 -0.26423,-0.00339 -0.39648,0.03711l-1.91602,0.57422c-0.529,0.159 -0.82792,0.71514 -0.66992,1.24414c0.13,0.434 0.52603,0.71484 0.95703,0.71484c0.094,0 0.19111,-0.01397 0.28711,-0.04297l1.91602,-0.57422c0.529,-0.159 0.82987,-0.71809 0.67188,-1.24609c-0.1185,-0.396 -0.46209,-0.66484 -0.84961,-0.70703zM13.82813,41.76172c-0.12847,0.018 -0.25505,0.06181 -0.37305,0.13281l-1.7168,1.02734c-0.475,0.284 -0.6287,0.89709 -0.3457,1.37109c0.187,0.313 0.51837,0.48633 0.85938,0.48633c0.175,0 0.35172,-0.04362 0.51172,-0.14062l1.7168,-1.02734c0.475,-0.284 0.6287,-0.89709 0.3457,-1.37109c-0.213,-0.3555 -0.61264,-0.53252 -0.99805,-0.47852zM17.13477,45.83203c-0.25575,-0.0005 -0.51153,0.09552 -0.70703,0.29102l-1.41602,1.41406c-0.392,0.39 -0.39195,1.02306 -0.00195,1.41406c0.195,0.196 0.45198,0.29297 0.70898,0.29297c0.256,0 0.51008,-0.09702 0.70508,-0.29102l1.41602,-1.41406c0.392,-0.39 0.39195,-1.02111 0.00195,-1.41211c-0.1955,-0.1955 -0.45128,-0.29442 -0.70703,-0.29492zM21.34375,49.01758c-0.38597,-0.05498 -0.78505,0.11911 -0.99805,0.47461l-1.0293,1.71484c-0.284,0.474 -0.1322,1.08709 0.3418,1.37109c0.161,0.097 0.33962,0.14453 0.51563,0.14453c0.34,0 0.67042,-0.17433 0.85742,-0.48633l1.0293,-1.71289c0.284,-0.474 0.1322,-1.08905 -0.3418,-1.37305c-0.1185,-0.07125 -0.24634,-0.11449 -0.375,-0.13281zM25.81641,51.09766c-0.3877,0.04177 -0.73036,0.30908 -0.84961,0.70508l-0.57812,1.91406c-0.16,0.529 0.13997,1.08805 0.66797,1.24805c0.097,0.029 0.19306,0.04297 0.28906,0.04297c0.429,0 0.82703,-0.27894 0.95703,-0.71094l0.57813,-1.91602c0.16,-0.529 -0.13997,-1.08609 -0.66797,-1.24609c-0.1325,-0.03975 -0.26725,-0.05103 -0.39648,-0.03711z"></path></g></g></svg>