<svg xmlns="http://www.w3.org/2000/svg" xmlns:xlink="http://www.w3.org/1999/xlink" viewBox="0,0,256,256" width="64px" height="64px" fill-rule="nonzero"><g fill="#f6f4eb" fill-rule="nonzero" stroke="none" stroke-width="1" stroke-linecap="butt" stroke-linejoin="miter" stroke-miterlimit="10" stroke-dasharray="" stroke-dashoffset="0" font-family="none" font-weight="none" font-size="none" text-anchor="none" style="mix-blend-mode: normal"><g transform="scale(4,4)"><path d="M31.98828,2c-16.53516,0 -29.98828,13.45703 -29.98828,30c0,6.19922 1.86719,12.12109 5.41406,17.16016l-3.45312,10.29297c-0.12109,0.35547 -0.03125,0.75391 0.23437,1.01953c0.26563,0.26953 0.66016,0.36719 1.01563,0.25l10.69531,-3.41406c4.80859,3.07031 10.36719,4.69141 16.10547,4.69141c16.53516,0 29.98828,-13.45703 29.98828,-30c0,-16.54297 -13.45312,-30 -29.9375,-29.99609l-0.01562,-0.00391c-0.01953,0 -0.03906,0 -0.05859,0zM31.98828,4h0.02344c15.43359,0 27.98828,12.5625 27.98828,28c0,15.4375 -12.55469,28 -27.98828,28c-5.50781,0 -10.83594,-1.59766 -15.40234,-4.625c-0.16797,-0.10547 -0.35937,-0.16406 -0.55078,-0.16406c-0.10547,0 -0.20703,0.01563 -0.30859,0.04688l-9.26562,2.96094l2.98438,-8.90234c0.10547,-0.30859 0.05078,-0.64844 -0.14062,-0.91016c-3.48437,-4.78516 -5.32812,-10.46094 -5.32812,-16.40625c0,-15.4375 12.55469,-28 27.98828,-28zM33.20703,7.94922c-2.27344,-0.07422 -4.55469,0.17969 -6.78125,0.76953c-0.53516,0.13672 -0.85156,0.68359 -0.71094,1.21875c0.13672,0.53516 0.67969,0.85547 1.21875,0.71484c4.07813,-1.07031 8.35938,-0.93359 12.37891,0.40234c1.03906,0.34375 2.05078,0.76953 3.01563,1.25781c0.14844,0.07422 0.30469,0.10938 0.45313,0.10938c0.36719,0 0.71875,-0.20312 0.89453,-0.55078c0.25,-0.49219 0.05469,-1.09375 -0.44141,-1.34375c-1.05078,-0.53516 -2.15625,-0.99609 -3.28906,-1.37109c-2.19531,-0.73047 -4.46094,-1.13281 -6.73828,-1.20703zM46.64063,12.98828c-0.25781,0.02734 -0.5,0.15234 -0.67187,0.36719c-0.34766,0.42969 -0.28125,1.05859 0.15234,1.40625c0.61328,0.49609 1.20703,1.03125 1.76563,1.58984c0.19141,0.19531 0.44922,0.29297 0.70703,0.29297c0.25391,0 0.51172,-0.09375 0.70313,-0.28906c0.39453,-0.39062 0.39453,-1.02344 0.00391,-1.41406c-0.60547,-0.60937 -1.25391,-1.19531 -1.92578,-1.73828c-0.21484,-0.17187 -0.48047,-0.24219 -0.73437,-0.21484zM22.30078,17c-1.37109,0 -2.59375,0.44922 -3.42187,1.29688c-0.85547,0.87109 -2.86328,2.91016 -2.86328,6.92188c0,3.41406 2.01953,6.6875 3.26953,8.40234l0.13672,0.19141c3.76953,5.46094 8.4375,9.54688 13.14844,11.49609c4.17188,1.73047 6.40625,2.19141 7.94531,2.19141c0.66406,0 1.19531,-0.08594 1.70313,-0.19141c2.25,-0.48828 5.05078,-2.15625 5.80859,-4.29297c0.62891,-1.78125 0.78516,-3.68359 0.36328,-4.41797c-0.29687,-0.52344 -0.80078,-0.76562 -1.44141,-1.07422l-0.41797,-0.20703c-0.04687,-0.01953 -4.41406,-2.19531 -5.25,-2.48828c-1.1875,-0.44922 -2.28906,-0.10937 -3.01562,0.91797l-0.32812,0.45703c-0.59766,0.84375 -1.16797,1.63672 -1.60937,2.11719c-0.13672,0.14453 -0.43359,0.16406 -0.70703,0.05078l-0.24609,-0.10156c-0.98047,-0.39453 -3.01562,-1.21875 -5.53516,-3.46094c-2.02344,-1.80078 -3.46875,-4.07812 -3.99609,-4.96875c-0.04297,-0.07422 -0.05469,-0.11719 -0.0625,-0.12109c0.02734,-0.06641 0.16016,-0.21875 0.28125,-0.35937c0.19531,-0.25 0.39453,-0.45703 0.58984,-0.66016c0.16797,-0.18359 0.33594,-0.36328 0.50781,-0.5625l0.08203,-0.08984c0.34766,-0.40234 0.62109,-0.71875 0.88672,-1.29297c0.52344,-1.00781 0.05859,-1.96875 -0.09375,-2.28516c-0.11719,-0.25391 -1.02734,-2.46094 -1.62891,-3.92187l-0.67187,-1.625c-0.64453,-1.53906 -1.35547,-1.84375 -2.50391,-1.89062c-0.27734,-0.01562 -0.58594,-0.03125 -0.92969,-0.03125zM22.30078,19c0.30078,0 0.56641,0.01563 0.82813,0.03125c0.11328,0.00391 0.35547,0.01172 0.40625,0.03516c0.00781,0.00391 0.12891,0.09375 0.35156,0.62109l0.66797,1.62109c0.89844,2.17969 1.54297,3.74219 1.67969,4.02344c0.12109,0.25391 0.16016,0.42578 0.10156,0.54297c-0.16797,0.35156 -0.29687,0.50391 -0.60547,0.85938l-0.08594,0.09375c-0.14844,0.17969 -0.30078,0.33984 -0.44922,0.49609c-0.23047,0.24219 -0.45703,0.48828 -0.69531,0.77734c-0.35156,0.41406 -1.17578,1.38281 -0.38672,2.74609c0.71875,1.21484 2.24219,3.53516 4.39063,5.45313c2.78125,2.47656 5.12109,3.41797 6.12109,3.82422l0.22266,0.08984c1.07031,0.44141 2.22266,0.23438 2.94141,-0.53125c0.53516,-0.57812 1.14063,-1.42578 1.77734,-2.32031l0.32422,-0.45703c0.20703,-0.29297 0.35156,-0.33203 0.71094,-0.19531c0.5625,0.19531 3.78516,1.76953 5.03125,2.39453l0.44531,0.22266c0.20703,0.09766 0.45313,0.21484 0.54297,0.25c0.03906,0.37891 -0.01172,1.44531 -0.48047,2.76953c-0.47266,1.33984 -2.625,2.63672 -4.33984,3.00391c-1.02344,0.21875 -2.57422,0.55078 -8.46094,-1.89062c-4.36328,-1.80469 -8.71875,-5.63672 -12.27344,-10.78516c-0.08984,-0.13281 -0.15234,-0.22266 -0.21094,-0.30469c-1.0625,-1.44922 -2.83984,-4.30859 -2.83984,-7.15234c0,-3.19141 1.54688,-4.76562 2.35938,-5.59375c0.375,-0.38672 1.11719,-0.625 1.92578,-0.625zM9.5625,30.90625c-0.55078,-0.03125 -1.02344,0.39063 -1.05469,0.9375c-0.03516,0.55469 0.38281,1.02734 0.9375,1.05859l2.06641,0.12109c0.01953,0 0.03906,0.00391 0.0625,0.00391c0.52344,0 0.96484,-0.41016 0.99219,-0.94141c0.03516,-0.55078 -0.38281,-1.02734 -0.9375,-1.05859zM12.14453,36.30469c-0.125,-0.02344 -0.26172,-0.02734 -0.39453,0.00391l-2.03125,0.41406c-0.53906,0.10938 -0.89062,0.64063 -0.77734,1.18359c0.09766,0.47266 0.51563,0.79688 0.98047,0.79688c0.06641,0 0.13281,-0.00781 0.20313,-0.01953l2.02734,-0.41797c0.53906,-0.11328 0.88672,-0.64062 0.77734,-1.18359c-0.08203,-0.40625 -0.40234,-0.70312 -0.78516,-0.77734zM13.61328,41.26563c-0.12891,0.01172 -0.25781,0.04297 -0.38281,0.10547l-1.85156,0.92969c-0.49219,0.24609 -0.69531,0.84766 -0.44531,1.33984c0.17188,0.35156 0.52734,0.55469 0.89453,0.55469c0.14844,0 0.30078,-0.03516 0.44531,-0.10547l1.85156,-0.92969c0.49609,-0.24609 0.69531,-0.84766 0.44922,-1.34375c-0.1875,-0.36719 -0.57031,-0.57422 -0.96094,-0.55078zM16.69531,45.63281c-0.25391,-0.01562 -0.51562,0.06641 -0.72266,0.25391l-1.55078,1.375c-0.41016,0.36328 -0.44531,0.99609 -0.07812,1.41016c0.19531,0.22266 0.46875,0.33594 0.74609,0.33594c0.23438,0 0.47266,-0.08203 0.66406,-0.25391l1.54688,-1.375c0.41406,-0.36719 0.44922,-1 0.08594,-1.41016c-0.18359,-0.20703 -0.4375,-0.32031 -0.69141,-0.33594zM20.80469,49.09766c-0.38281,-0.07031 -0.78906,0.08594 -1.01953,0.43359l-1.13672,1.73047c-0.30469,0.46094 -0.17578,1.07813 0.28516,1.38281c0.16797,0.10938 0.35938,0.16797 0.55078,0.16797c0.32422,0 0.64063,-0.16016 0.83203,-0.45312l1.14063,-1.73047c0.30469,-0.46094 0.17969,-1.07812 -0.28516,-1.38281c-0.11328,-0.07422 -0.23828,-0.125 -0.36719,-0.14844z"></path></g></g></svg>